<svg width="20" height="20" viewBox="0 0 20 20" fill="none" xmlns="http://www.w3.org/2000/svg">
    <path fill-rule="evenodd" clip-rule="evenodd" d="M8.5537 0.599075C9.35247 -0.199692 10.6475 -0.199692 11.4463 0.599075L19.4009 8.55371C20.1997 9.35247 20.1997 10.6475 19.4009 11.4463L11.4463 19.4009C10.6475 20.1997 9.35247 20.1997 8.55371 19.4009L0.599075 11.4463C-0.199692 10.6475 -0.199692 9.35247 0.599075 8.5537L8.5537 0.599075ZM3.02674 9.22525C2.59883 9.65316 2.59883 10.3469 3.02674 10.7749C3.45465 11.2028 4.14843 11.2028 4.57634 10.7749L8.03707 7.31412C8.46498 6.88621 8.46498 6.19243 8.03707 5.76452C7.60916 5.33661 6.91538 5.33661 6.48747 5.76452L3.02674 9.22525ZM10.7747 4.5765C10.3468 5.00442 9.65296 5.00445 9.22505 4.57654C8.79714 4.14863 8.79718 3.45481 9.22509 3.0269C9.653 2.59899 10.3468 2.59895 10.7747 3.02686C11.2026 3.45477 11.2026 4.14859 10.7747 4.5765ZM13.8739 6.12615C13.446 5.69824 12.7522 5.69824 12.3243 6.12615L6.12595 12.3245C5.69804 12.7524 5.69804 13.4462 6.12595 13.8741C6.55386 14.302 7.24764 14.302 7.67555 13.8741L13.8739 7.67575C14.3018 7.24784 14.3018 6.55406 13.8739 6.12615ZM15.4235 9.22536C15.8514 8.79745 16.5452 8.79745 16.9731 9.22536C17.401 9.65327 17.401 10.3471 16.9731 10.775L13.5124 14.2357C13.0845 14.6636 12.3907 14.6636 11.9628 14.2357C11.5349 13.8078 11.5349 13.114 11.9628 12.6861L15.4235 9.22536ZM10.7748 15.4237C10.3469 14.9958 9.65307 14.9958 9.22516 15.4237C8.79726 15.8516 8.79726 16.5453 9.22516 16.9732C9.65306 17.4012 10.3469 17.4012 10.7748 16.9733C11.2027 16.5454 11.2027 15.8516 10.7748 15.4237Z" fill="#FB310A" />
</svg>
    